<?xml version="1.0" encoding="utf-8"?>
<!-- Generator: Adobe Illustrator 27.1.1, SVG Export Plug-In . SVG Version: 6.00 Build 0)  -->
<svg version="1.1" id="Layer_1" xmlns="http://www.w3.org/2000/svg" xmlns:xlink="http://www.w3.org/1999/xlink" x="0px" y="0px"
	 viewBox="0 0 64 64" style="enable-background:new 0 0 64 64;" xml:space="preserve">
<style type="text/css">
	.st0{fill:none;stroke:#FFFFFF;stroke-width:7;}
	.st1{clip-path:url(#SVGID_00000019674079817295958500000005215285505005021628_);}
	.st2{fill:#FFFFFF;}
</style>
<g>
	<path class="st0" d="M59.85,32.05c0,15.37-12.49,27.84-27.93,27.84S4,47.42,4,32.05C4,16.68,16.49,4.21,31.92,4.21
		C47.36,4.21,59.85,16.68,59.85,32.05z"/>
	<g>
		<defs>
			<rect id="SVGID_1_" x="9.26" y="9.44" width="45.34" height="45.21"/>
		</defs>
		<clipPath id="SVGID_00000069369528456953521730000007529894704999142833_">
			<use xlink:href="#SVGID_1_"  style="overflow:visible;"/>
		</clipPath>
		<g style="clip-path:url(#SVGID_00000069369528456953521730000007529894704999142833_);">
			<path class="st2" d="M45.86,32.83L25.84,46.15c-0.14,0.1-0.31,0.15-0.48,0.16c-0.17,0.01-0.34-0.03-0.49-0.11
				c-0.15-0.08-0.28-0.2-0.36-0.35c-0.09-0.15-0.13-0.31-0.13-0.48V18.74c0-0.17,0.05-0.34,0.13-0.48c0.09-0.15,0.21-0.27,0.36-0.35
				c0.15-0.08,0.32-0.12,0.49-0.11c0.17,0.01,0.34,0.06,0.48,0.16l20.02,13.31c0.13,0.09,0.24,0.2,0.31,0.34
				c0.07,0.14,0.11,0.29,0.11,0.44c0,0.16-0.04,0.31-0.11,0.44C46.09,32.63,45.99,32.75,45.86,32.83z"/>
		</g>
	</g>
</g>
</svg>
